<svg xmlns="http://www.w3.org/2000/svg" viewBox="0 0 512 512">
  <defs>
    <linearGradient id="bg" x1="0%" y1="0%" x2="100%" y2="100%">
      <stop offset="0%" stop-color="#FF6B9D"/>
      <stop offset="100%" stop-color="#FF9EC4"/>
    </linearGradient>
    <linearGradient id="leaf" x1="20%" y1="0%" x2="85%" y2="100%">
      <stop offset="0%" stop-color="#9AF25E"/>
      <stop offset="100%" stop-color="#46B92C"/>
    </linearGradient>
    <linearGradient id="leaf-dark" x1="0%" y1="0%" x2="100%" y2="100%">
      <stop offset="0%" stop-color="#63D735"/>
      <stop offset="100%" stop-color="#2E9D24"/>
    </linearGradient>
    <linearGradient id="seed" x1="8%" y1="0%" x2="100%" y2="100%">
      <stop offset="0%" stop-color="#FFFFFF"/>
      <stop offset="100%" stop-color="#FFE8B0"/>
    </linearGradient>
    <filter id="shadow" x="-20%" y="-20%" width="140%" height="140%">
      <feDropShadow dx="0" dy="4" stdDeviation="8" flood-color="#CC4477" flood-opacity="0.25"/>
    </filter>
  </defs>

  <rect width="512" height="512" rx="112" ry="112" fill="url(#bg)"/>
  <rect width="512" height="512" rx="112" ry="112" fill="none" stroke="rgba(255,255,255,0.22)" stroke-width="12"/>

  <g filter="url(#shadow)">
    <path d="M256 326c0-64 2-108 2-159" fill="none" stroke="#43B824" stroke-width="18" stroke-linecap="round"/>
    <path d="M254 281c-12-52-43-88-94-112 9 58 44 96 99 119l-5-7Z" fill="url(#leaf-dark)"/>
    <path d="M262 272c19-69 62-112 129-130-10 73-54 119-128 137l-1-7Z" fill="url(#leaf)"/>
    <path d="M254 222c-10-55 5-98 44-131 24 55 12 101-39 136l-5-5Z" fill="url(#leaf)"/>

    <path d="M194 194c31 21 51 47 62 80" stroke="#D9FFB8" stroke-width="7" stroke-linecap="round" opacity="0.42"/>
    <path d="M298 135c-19 36-31 77-36 122" stroke="#D9FFB8" stroke-width="7" stroke-linecap="round" opacity="0.44"/>
    <path d="M315 172c-26 30-50 55-73 75" stroke="#D9FFB8" stroke-width="7" stroke-linecap="round" opacity="0.38"/>

    <ellipse cx="256" cy="344" rx="88" ry="78" fill="url(#seed)"/>
    <ellipse cx="256" cy="344" rx="88" ry="78" fill="none" stroke="#FFD900" stroke-width="10"/>
    <ellipse cx="256" cy="344" rx="64" ry="56" fill="none" stroke="#FFDFA0" stroke-width="5" opacity="0.75"/>

    <path d="M256 299v14M256 375v14M210 344h14M288 344h14" stroke="#FFB020" stroke-width="7" stroke-linecap="round"/>
    <path d="M256 344v-36" stroke="#FF9600" stroke-width="9" stroke-linecap="round"/>
    <path d="M256 344l32 18" stroke="#FF9600" stroke-width="8" stroke-linecap="round"/>
    <circle cx="256" cy="344" r="8" fill="#FF9600"/>
  </g>
</svg>
